<?xml version="1.0" encoding="UTF-8"?><svg id="creaition_logo_90_12" xmlns="http://www.w3.org/2000/svg" viewBox="0 0 483.06 93.9"><path d="m11.25,39.75c-1.5,2.7-2.25,5.72-2.25,9.05s.73,6.22,2.2,8.85c1.47,2.63,3.48,4.73,6.05,6.3,2.57,1.57,5.42,2.35,8.55,2.35,2.27,0,4.4-.42,6.4-1.25,2-.83,3.73-1.95,5.2-3.35l5.6,6.4c-2.33,2-4.97,3.57-7.9,4.7-2.93,1.13-6.03,1.7-9.3,1.7-4.67,0-8.98-1.13-12.95-3.4-3.97-2.27-7.1-5.38-9.4-9.35-2.3-3.97-3.45-8.28-3.45-12.95s1.15-9.18,3.45-13.15c2.3-3.97,5.43-7.1,9.4-9.4,3.97-2.3,8.28-3.45,12.95-3.45,5.2,0,9.93,1.38,14.2,4.15,4.27,2.77,7.43,6.38,9.5,10.85l-8.1,3.6c-1.27-3.07-3.3-5.55-6.1-7.45-2.8-1.9-5.93-2.85-9.4-2.85-3.13,0-5.98.77-8.55,2.3-2.57,1.53-4.6,3.65-6.1,6.35Zm66.15-13c-2.79,1.25-5.21,3-7.27,5.24l1.67-7.49-7.9-1.7-10.7,49.9,8.8,1.8,5.1-23.8c.87-4,2.15-7.23,3.85-9.7,1.7-2.47,3.9-4.25,6.6-5.35,2.7-1.1,5.95-1.45,9.75-1.05l1-9.6c-3.93-.33-7.57.25-10.9,1.75Zm58.4,41.35c-3.49,2.84-9.14,6.4-16.9,6.4-4.87,0-9.28-1.13-13.25-3.4-3.97-2.27-7.1-5.38-9.4-9.35-2.3-3.97-3.45-8.32-3.45-13.05s1.12-9.08,3.35-13.05c2.23-3.97,5.27-7.1,9.1-9.4,3.83-2.3,8.05-3.45,12.65-3.45s8.82,1.13,12.65,3.4c3.83,2.27,6.85,5.35,9.05,9.25,2.2,3.9,3.3,8.18,3.3,12.85v1.7c0,.53-.03,1.03-.1,1.5h-40.69c.3,2.15.94,4.17,1.94,6.05,1.43,2.7,3.42,4.82,5.95,6.35,2.53,1.53,5.4,2.3,8.6,2.3,5.9,0,9.52-2.83,11.6-4.5l5.6,6.4Zm-31.75-28.4c-.71,1.33-1.25,2.73-1.61,4.2h30.94c-.36-1.49-.9-2.91-1.63-4.25-1.43-2.63-3.37-4.72-5.8-6.25-2.43-1.53-5.15-2.3-8.15-2.3s-5.52.77-7.95,2.3c-2.43,1.53-4.37,3.63-5.8,6.3Zm52.15,54.1h19.7v-8.3h-10.8V8.3h10.8V0h-19.7v93.8ZM223.6,23.7h8.9v49.9h-8.9v-7.07c-1.6,1.78-3.43,3.31-5.5,4.57-3.73,2.27-7.83,3.4-12.3,3.4s-8.68-1.13-12.45-3.4c-3.77-2.27-6.75-5.4-8.95-9.4s-3.3-8.33-3.3-13,1.1-9.08,3.3-13.05c2.2-3.97,5.18-7.1,8.95-9.4,3.77-2.3,7.92-3.45,12.45-3.45s8.57,1.15,12.3,3.45c2.07,1.28,3.9,2.82,5.5,4.6v-7.15Zm.3,25c0-3.27-.73-6.25-2.2-8.95-1.47-2.7-3.5-4.82-6.1-6.35-2.6-1.53-5.5-2.3-8.7-2.3s-5.98.77-8.55,2.3c-2.57,1.53-4.58,3.65-6.05,6.35-1.47,2.7-2.2,5.68-2.2,8.95s.73,6.23,2.2,8.9c1.47,2.67,3.48,4.78,6.05,6.35,2.57,1.57,5.42,2.35,8.55,2.35s6.1-.78,8.7-2.35c2.6-1.57,4.63-3.68,6.1-6.35,1.47-2.67,2.2-5.63,2.2-8.9Zm25,24.9h9V23.7h-9v49.9Zm-.5-59.5h10V4.1h-10v10Zm22.2-5.7h10.7v77.2h-10.7v8.3h19.7V.1h-19.7v8.3Zm57,1.1l-8.8-1.9-3.44,16.1h-9.16v8.3h7.39l-5.09,23.8c-.67,3.27-.42,6.35.75,9.25,1.17,2.9,3.05,5.2,5.65,6.9,2.6,1.7,5.57,2.55,8.9,2.55,1.93,0,3.71-.27,5.35-.8,1.63-.53,3.05-1.3,4.25-2.3l-4.5-6.4c-.47.4-1.1.75-1.9,1.05-.8.3-1.67.45-2.6.45-1.47,0-2.82-.4-4.05-1.2-1.23-.8-2.15-1.87-2.75-3.2-.6-1.33-.7-2.9-.3-4.7l5.46-25.4h15.24v-8.3h-13.45l3.05-14.2Zm28.4,3.4l9.7,2.1,2.1-9.7-9.7-2.1-2.1,9.7Zm-12.2,59.8l8.7,1.9,10.6-50-8.7-1.9-10.6,50Zm76.15-37.05c2.3,3.97,3.45,8.32,3.45,13.05s-1.15,9-3.45,13c-2.3,4-5.43,7.13-9.4,9.4-3.97,2.27-8.35,3.4-13.15,3.4s-8.98-1.13-12.95-3.4c-3.97-2.27-7.1-5.38-9.4-9.35-2.3-3.97-3.45-8.28-3.45-12.95s1.15-9.18,3.45-13.15c2.3-3.97,5.43-7.1,9.4-9.4,3.97-2.3,8.28-3.45,12.95-3.45s9.18,1.15,13.15,3.45c3.97,2.3,7.1,5.43,9.4,9.4Zm-5.55,13.15c0-3.33-.73-6.35-2.2-9.05-1.47-2.7-3.48-4.82-6.05-6.35-2.57-1.53-5.45-2.3-8.65-2.3s-5.98.77-8.55,2.3c-2.57,1.53-4.6,3.65-6.1,6.35-1.5,2.7-2.25,5.72-2.25,9.05s.73,6.22,2.2,8.85c1.47,2.63,3.48,4.73,6.05,6.3,2.57,1.57,5.42,2.35,8.55,2.35s6.1-.78,8.7-2.35c2.6-1.57,4.63-3.67,6.1-6.3,1.47-2.63,2.2-5.58,2.2-8.85Zm67.4-14.25c-1.4-3.63-3.73-6.5-7-8.6-3.27-2.1-7.1-3.15-11.5-3.15-3.6,0-6.87.72-9.8,2.15-1.67.82-3.18,1.85-4.54,3.08l.74-3.53-7.9-1.6-10.6,49.7,8.8,1.9,6.4-30.6c.6-2.93,1.6-5.38,3-7.35,1.4-1.97,3.08-3.4,5.05-4.3,1.97-.9,4.08-1.35,6.35-1.35,3,0,5.55.67,7.65,2,2.1,1.33,3.6,3.22,4.5,5.65.9,2.43,1.02,5.15.35,8.15l-5.4,25.9,8.8,1.9,5.8-27.8c.93-4.46.7-8.52-.7-12.15Z"/></svg>